<svg xmlns="http://www.w3.org/2000/svg" width="15.999" height="15.999" viewBox="0 0 15.999 15.999">
  <g id="Group_1578" data-name="Group 1578" transform="translate(-1236 -192)">
    <g id="Group_1288" data-name="Group 1288" transform="translate(1239.387 203.588) rotate(-45)">
      <path id="Path_602" data-name="Path 602" d="M0,0H7V2H0Z" transform="translate(1.338 0.197)" fill="#fff"/>
      <path id="Path_601" data-name="Path 601" d="M1.462.132l.255,1.64L.052,1.542,0,0Z" transform="translate(2.467 1.253) rotate(135)" fill="#fff"/>
      <path id="Rectangle_865" data-name="Rectangle 865" d="M0,0H.667a1,1,0,0,1,1,1V1a1,1,0,0,1-1,1H0A0,0,0,0,1,0,2V0A0,0,0,0,1,0,0Z" transform="translate(9.004 0.197)" fill="#fff"/>
    </g>
    <rect id="Rectangle_871" data-name="Rectangle 871" width="15.999" height="15.999" transform="translate(1236 192)" fill="none"/>
  </g>
</svg>
