<svg xmlns="http://www.w3.org/2000/svg" width="24" height="24" viewBox="0 0 24 24">
  <g id="Group_1863" data-name="Group 1863" transform="translate(-36 -624)">
    <rect id="Rectangle_899" data-name="Rectangle 899" width="24" height="24" transform="translate(36 624)" fill="none"/>
    <g id="Group_1491" data-name="Group 1491" transform="translate(1.75 2)">
      <g id="Group_1314" data-name="Group 1314" transform="translate(40 626)">
        <g id="Path_652" data-name="Path 652" transform="translate(0)" fill="none">
          <path d="M1.562,0H8.594L12.5,4V14.4A1.582,1.582,0,0,1,10.937,16H1.562A1.582,1.582,0,0,1,0,14.4V1.6A1.582,1.582,0,0,1,1.562,0Z" stroke="none"/>
          <path d="M 1.562499046325684 1.499995231628418 C 1.540688514709473 1.499995231628418 1.499999046325684 1.534336090087891 1.499999046325684 1.599995613098145 L 1.499999046325684 14.39999580383301 C 1.499999046325684 14.46565532684326 1.540688514709473 14.49999618530273 1.562499046325684 14.49999618530273 L 10.93749809265137 14.49999618530273 C 10.95930862426758 14.49999618530273 10.99999809265137 14.46565532684326 10.99999809265137 14.39999580383301 L 10.99999809265137 4.610921859741211 L 7.961985111236572 1.499995231628418 L 1.562499046325684 1.499995231628418 M 1.562499046325684 -4.76837158203125e-06 L 8.593748092651367 -4.76837158203125e-06 L 12.49999809265137 3.999995231628418 L 12.49999809265137 14.39999580383301 C 12.49999809265137 15.28364562988281 11.80043888092041 15.99999618530273 10.93749809265137 15.99999618530273 L 1.562499046325684 15.99999618530273 C 0.6995582580566406 15.99999618530273 -9.5367431640625e-07 15.28364562988281 -9.5367431640625e-07 14.39999580383301 L -9.5367431640625e-07 1.599995613098145 C -9.5367431640625e-07 0.7163457870483398 0.6995582580566406 -4.76837158203125e-06 1.562499046325684 -4.76837158203125e-06 Z" stroke="none" fill="#75787b"/>
        </g>
        <path id="Path_653" data-name="Path 653" d="M4.165,0V4.165H0Z" transform="translate(12.165 0.5) rotate(90)" fill="#75787b"/>
      </g>
    </g>
    <g id="Group_1864" data-name="Group 1864" transform="translate(21 4)">
      <g id="Group_1407" data-name="Group 1407" transform="translate(-19.5 -2)">
        <rect id="Rectangle_905" data-name="Rectangle 905" width="6" height="1.5" transform="translate(43.5 635.25)" fill="#75787b"/>
        <rect id="Rectangle_906" data-name="Rectangle 906" width="6" height="1.5" transform="translate(47.25 633) rotate(90)" fill="#75787b"/>
      </g>
    </g>
  </g>
</svg>
