<svg xmlns="http://www.w3.org/2000/svg" width="24" height="24" viewBox="0 0 24 24">
  <g id="Group_1869" data-name="Group 1869" transform="translate(-3445.5 905)">
    <rect id="Rectangle_1" data-name="Rectangle 1" width="24" height="24" transform="translate(3445.5 -905)" fill="none"/>
    <g id="Group_1514" data-name="Group 1514" transform="translate(2.18 2.25)">
      <g id="Ellipse_1" data-name="Ellipse 1" transform="translate(3451 -903.25)" fill="none" stroke="#75787b" stroke-miterlimit="10" stroke-width="1.5">
        <circle cx="3" cy="3" r="3" stroke="none"/>
        <circle cx="3" cy="3" r="2.25" fill="none"/>
      </g>
      <path id="Path_1" data-name="Path 1" d="M114.293,9.5a6.972,6.972,0,0,0-6.973,6.9h8.851c.009-.074-.021-.3,0-.651s.084-.743.084-.743H108.91a5.608,5.608,0,0,1,5.383-4.109,5.457,5.457,0,0,1,3.208,1.032,2.263,2.263,0,0,1,.553-.509,1.963,1.963,0,0,1,.723-.306A6.133,6.133,0,0,0,114.293,9.5Z" transform="translate(3340 -905.5)" fill="#75787b"/>
      <path id="Subtraction_3" data-name="Subtraction 3" d="M-66.693,14.749h-.975a.383.383,0,0,1-.391-.375v-.54a2.355,2.355,0,0,1-.56-.313l-.489.271a.4.4,0,0,1-.195.051.4.4,0,0,1-.338-.188l-.487-.811a.36.36,0,0,1-.04-.281.374.374,0,0,1,.183-.231l.489-.271a2.223,2.223,0,0,1-.025-.311,2.272,2.272,0,0,1,.025-.311l-.489-.271a.374.374,0,0,1-.183-.231.359.359,0,0,1,.04-.28l.487-.812a.4.4,0,0,1,.339-.187.4.4,0,0,1,.194.05l.489.271a2.329,2.329,0,0,1,.56-.312v-.54a.384.384,0,0,1,.391-.375h.975a.384.384,0,0,1,.391.375v.54a2.33,2.33,0,0,1,.56.312l.488-.271a.4.4,0,0,1,.195-.05.4.4,0,0,1,.338.187l.488.812a.358.358,0,0,1,.04.28.374.374,0,0,1-.183.231l-.488.271a2.277,2.277,0,0,1,.025.311,2.219,2.219,0,0,1-.025.311l.488.271a.374.374,0,0,1,.183.231.36.36,0,0,1-.04.281l-.488.811a.4.4,0,0,1-.338.188.4.4,0,0,1-.2-.051l-.488-.271a2.355,2.355,0,0,1-.56.313v.54A.383.383,0,0,1-66.693,14.749Zm-.485-4.162A1.126,1.126,0,0,0-68.3,11.712a1.126,1.126,0,0,0,1.124,1.125,1.126,1.126,0,0,0,1.125-1.125A1.126,1.126,0,0,0-67.178,10.587Z" transform="translate(3528 -902)" fill="#75787b"/>
    </g>
  </g>
</svg>
