<svg id="Layer_1" data-name="Layer 1" xmlns="http://www.w3.org/2000/svg" viewBox="0 0 51.02 68.03"><defs><style>.cls-1{fill:#5a316b;}.cls-2{fill:none;stroke:#5a316b;stroke-miterlimit:10;stroke-width:2px;}</style></defs><title>IMAGE</title><path class="cls-1" d="M48.68,61.64A3.55,3.55,0,0,1,45,65.53H6c-3.42,0-3.63-3.24-3.63-3.89V6.39A3.55,3.55,0,0,1,6,2.5h26.4v11c0,2.2,1.25,6.36,6,6.36H48.59l.09.1Zm-2.43-44.3H38.36c-3.42,0-3.63-3.22-3.63-3.86V5ZM51,61.64V18.91L34.73,1.48V1.4h-.08L33.34,0H6C3.91,0,0,1.34,0,6.39V61.64C0,63.85,1.25,68,6,68H45c2.07,0,6-1.33,6-6.39"/><polygon class="cls-2" points="8.31 47.53 20.01 30.53 32.01 47.53 8.31 47.53"/><polyline class="cls-2" points="30.2 44.44 33.33 39.88 38.73 47.53 28.06 47.53"/><circle class="cls-2" cx="30.73" cy="31.95" r="2.67"/></svg>