<svg id="Layer_1" data-name="Layer 1" xmlns="http://www.w3.org/2000/svg" viewBox="0 0 51.02 68.03"><defs><style>.cls-1{fill:#d40000;}</style></defs><title>PDF</title><path class="cls-1" d="M37.46,39.32a5.85,5.85,0,0,1-2.25.06,10.92,10.92,0,0,1-2.85-.85,8.49,8.49,0,0,1,4.11.22,4.89,4.89,0,0,1,1,.57m-9.4-1.55-.21.06-1.32.35-.57.15c-1.15.29-2.33.59-3.5.94.44-1.07.85-2.15,1.26-3.2.3-.78.6-1.58.92-2.37.16.26.32.53.5.79a15.11,15.11,0,0,0,2.92,3.28m-2.94-12a10,10,0,0,1-.62,3.8,6.06,6.06,0,0,1-.12-4.5,2.56,2.56,0,0,1,.39-.62,2.87,2.87,0,0,1,.35,1.32m-6,16.69c-.29.52-.58,1-.89,1.46-.73,1.1-1.92,2.27-2.53,2.27a.31.31,0,0,1-.24-.12.23.23,0,0,1-.08-.19,3.62,3.62,0,0,1,1.34-1.79,12.47,12.47,0,0,1,2.4-1.63m20.31-3C39.32,38,37.06,37.17,37,37.16a8.53,8.53,0,0,0-2.9-.46,17.64,17.64,0,0,0-4,.54,14,14,0,0,1-3.57-3.67,20.1,20.1,0,0,1-1.09-1.84,13.84,13.84,0,0,0,1.35-6.09c-.11-1.8-.92-3-2-3-.75,0-1.4.56-1.93,1.66-.94,2-.69,4.48.74,7.49-.52,1.21-1,2.46-1.46,3.68C21.56,37,21,38.53,20.3,40a16.15,16.15,0,0,0-4.71,2.75,4.87,4.87,0,0,0-1.91,3,1.9,1.9,0,0,0,.54,1.44,1.94,1.94,0,0,0,1.46.65c1.84,0,3.6-2.52,3.94-3a28.28,28.28,0,0,0,1.92-3.46c1.56-.56,3.22-1,4.83-1.39l.58-.15,1.34-.35c.49-.14,1-.27,1.51-.4a13.45,13.45,0,0,0,5.16,2,6.31,6.31,0,0,0,3.64-.37,1.33,1.33,0,0,0,.81-1.3"/><path class="cls-1" d="M48.68,61.64A3.55,3.55,0,0,1,45,65.53H6c-3.42,0-3.63-3.24-3.63-3.89V6.39A3.55,3.55,0,0,1,6,2.5h26.4v11c0,2.2,1.25,6.36,6,6.36H48.59l.09.1Zm-2.43-44.3H38.36c-3.42,0-3.63-3.22-3.63-3.86V5ZM51,61.64V18.91L34.73,1.48V1.4h-.08L33.34,0H6C3.91,0,0,1.34,0,6.39V61.64C0,63.85,1.25,68,6,68H45c2.07,0,6-1.33,6-6.39"/></svg>