<svg id="Layer_1" data-name="Layer 1" xmlns="http://www.w3.org/2000/svg" viewBox="0 0 51.02 68.03"><defs><style>.cls-1,.cls-2{fill:#00b3b8;}.cls-2{stroke:#00b3b8;stroke-miterlimit:10;}</style></defs><title>TEXT</title><path class="cls-1" d="M48.68,61.64A3.55,3.55,0,0,1,45,65.53H6c-3.42,0-3.63-3.24-3.63-3.89V6.39A3.55,3.55,0,0,1,6,2.5h26.4v11c0,2.2,1.25,6.36,6,6.36H48.59l.09.1Zm-2.43-44.3H38.36c-3.42,0-3.63-3.22-3.63-3.86V5ZM51,61.64V18.91L34.73,1.48V1.4h-.08L33.34,0H6C3.91,0,0,1.34,0,6.39V61.64C0,63.85,1.25,68,6,68H45c2.07,0,6-1.33,6-6.39"/><line class="cls-2" x1="6.82" y1="28.35" x2="42.18" y2="28.35"/><line class="cls-2" x1="6.82" y1="34.68" x2="42.18" y2="34.68"/><line class="cls-2" x1="6.82" y1="41.02" x2="42.18" y2="41.02"/><line class="cls-2" x1="6.82" y1="47.85" x2="36.8" y2="47.85"/></svg>