<svg id="Layer_1" data-name="Layer 1" xmlns="http://www.w3.org/2000/svg" viewBox="0 0 51.02 68.03"><defs><style>.cls-1{fill:#cd9c54;}</style></defs><title>ZIPPED FILE</title><path class="cls-1" d="M48.68,61.64A3.55,3.55,0,0,1,45,65.53H6c-3.42,0-3.63-3.24-3.63-3.89V6.39A3.55,3.55,0,0,1,6,2.5h26.4v11c0,2.2,1.25,6.36,6,6.36H48.59l.09.1Zm-2.43-44.3H38.36c-3.42,0-3.63-3.22-3.63-3.86V5ZM51,61.64V18.91L34.73,1.48V1.4h-.08L33.34,0H6C3.91,0,0,1.34,0,6.39V61.64C0,63.85,1.25,68,6,68H45c2.07,0,6-1.33,6-6.39"/><polygon class="cls-1" points="15.26 40.73 11.21 40.73 11.21 46.17 16.91 46.17 16.91 40.76 20.96 40.76 20.96 35.32 15.26 35.32 15.26 40.73"/><polygon class="cls-1" points="15.26 51.61 11.21 51.61 11.21 57.06 16.91 57.06 16.91 51.65 20.96 51.65 20.96 46.21 15.26 46.21 15.26 51.61"/><polygon class="cls-1" points="15.26 8.09 11.21 8.09 11.21 13.52 16.91 13.52 16.91 8.11 20.96 8.11 20.96 2.68 15.26 2.68 15.26 8.09"/><polygon class="cls-1" points="15.26 18.96 11.21 18.96 11.21 24.41 16.91 24.41 16.91 19 20.96 19 20.96 13.56 15.26 13.56 15.26 18.96"/><polygon class="cls-1" points="15.26 29.85 11.21 29.85 11.21 35.28 16.91 35.28 16.91 29.89 20.96 29.89 20.96 24.45 15.26 24.45 15.26 29.85"/><polygon class="cls-1" points="14.7 61.88 10.65 61.88 10.65 67.32 16.36 67.32 16.36 61.92 20.41 61.92 20.41 56.47 14.7 56.47 14.7 61.88"/></svg>